<?xml version="1.0" standalone="no"?>
<!DOCTYPE svg PUBLIC "-//W3C//DTD SVG 20010904//EN"
 "http://www.w3.org/TR/2001/REC-SVG-20010904/DTD/svg10.dtd">
<svg version="1.0" xmlns="http://www.w3.org/2000/svg"
 width="2048.000000pt" height="2732.000000pt" viewBox="0 0 2048.000000 2732.000000"
 preserveAspectRatio="xMidYMid meet">
<metadata>
Created by potrace 1.16, written by Peter Selinger 2001-2019
</metadata>
<g transform="translate(0.000000,2732.000000) scale(0.100000,-0.100000)"
fill="#000000" stroke="none">
<path d="M10014 20944 c-5 -1 -34 -7 -64 -14 -30 -6 -125 -12 -210 -13 -151
-2 -155 -3 -166 -25 -22 -43 -30 -47 -73 -27 -35 15 -45 16 -71 5 -18 -7 -74
-14 -127 -14 -88 -1 -96 -3 -114 -25 -19 -23 -26 -24 -128 -24 -60 0 -117 5
-128 12 -35 18 -59 13 -107 -24 -26 -19 -53 -35 -61 -35 -8 0 -44 -13 -78 -30
-44 -21 -79 -30 -113 -30 -29 0 -59 -7 -73 -16 -13 -10 -33 -14 -49 -11 -17 4
-45 -3 -77 -19 -28 -13 -61 -24 -75 -24 -14 0 -38 -9 -55 -20 -53 -35 -265
-130 -290 -130 -7 0 -20 -11 -28 -24 -13 -19 -26 -24 -75 -28 -47 -3 -83 -16
-168 -59 -60 -30 -120 -63 -134 -75 -14 -12 -38 -24 -54 -28 -16 -4 -48 -20
-70 -36 -23 -15 -55 -31 -73 -35 -24 -5 -39 -18 -65 -60 -34 -57 -49 -63 -92
-43 -21 9 -29 8 -43 -4 -10 -9 -42 -28 -71 -42 -29 -15 -69 -42 -90 -60 -20
-18 -57 -46 -82 -61 -24 -15 -67 -49 -95 -74 -27 -26 -79 -64 -115 -86 -36
-21 -67 -43 -69 -48 -9 -23 -43 -47 -67 -47 -26 0 -70 -39 -123 -109 -13 -18
-45 -43 -72 -57 -27 -13 -49 -28 -49 -33 0 -7 -111 -108 -308 -280 -29 -25
-69 -72 -88 -104 -20 -31 -49 -64 -65 -72 -32 -17 -74 -75 -84 -117 -4 -16
-16 -30 -28 -34 -29 -9 -92 -73 -102 -103 -4 -13 -35 -51 -69 -85 -34 -33 -74
-78 -89 -98 -15 -20 -36 -40 -47 -43 -20 -6 -80 -110 -80 -138 0 -28 -82 -138
-144 -192 -35 -31 -67 -68 -70 -81 -8 -29 19 -91 46 -107 44 -28 1 -84 -55
-73 -31 6 -37 3 -61 -28 -14 -19 -26 -42 -26 -51 0 -9 -19 -35 -43 -58 -94
-93 -124 -192 -93 -302 21 -70 16 -89 -22 -82 -47 9 -112 -39 -112 -83 0 -15
-15 -46 -36 -73 -30 -39 -35 -52 -32 -84 3 -21 8 -45 12 -54 5 -12 -2 -22 -28
-37 l-36 -21 6 -88 c5 -75 3 -92 -13 -114 -10 -15 -31 -45 -47 -68 -21 -31
-29 -52 -28 -81 1 -26 -10 -65 -33 -116 -19 -42 -35 -91 -35 -109 0 -18 -11
-57 -25 -87 -14 -29 -25 -64 -25 -78 0 -14 -7 -47 -15 -75 -9 -27 -13 -61 -10
-74 3 -12 1 -37 -4 -55 -6 -17 -15 -87 -21 -156 -18 -222 -29 -320 -37 -333
-12 -19 -26 -235 -23 -352 1 -33 -3 -89 -9 -125 -6 -36 -14 -87 -17 -115 -7
-49 -6 -50 13 -32 12 10 27 15 37 11 21 -8 20 -17 -5 -40 -18 -16 -20 -26 -14
-69 3 -27 6 -74 5 -104 -1 -33 6 -70 16 -94 15 -33 16 -42 4 -60 -13 -22 -30
-133 -32 -212 -1 -46 21 -110 57 -162 22 -34 23 -38 9 -65 -17 -33 -8 -56 31
-82 19 -12 25 -25 25 -51 0 -18 5 -37 10 -40 15 -9 12 -41 -5 -55 -23 -19 -18
-64 15 -119 24 -41 29 -61 28 -108 -1 -62 7 -103 41 -223 12 -41 27 -104 32
-139 6 -36 17 -77 25 -92 8 -16 14 -41 14 -56 1 -15 9 -42 18 -59 47 -84 92
-180 92 -197 0 -10 11 -35 25 -55 14 -20 25 -47 25 -59 0 -12 4 -25 10 -28 5
-3 14 -23 20 -44 8 -31 16 -40 40 -45 29 -5 30 -8 30 -56 0 -28 6 -63 14 -78
7 -15 16 -51 19 -81 4 -37 14 -63 30 -80 13 -14 28 -38 35 -53 7 -18 20 -28
39 -30 21 -2 29 -10 35 -33 35 -143 42 -159 86 -183 35 -20 42 -28 42 -55 2
-80 54 -200 100 -228 27 -17 36 -18 65 -7 52 18 72 -5 78 -90 6 -98 41 -171
124 -256 37 -39 78 -84 91 -101 12 -16 37 -37 55 -45 17 -8 33 -24 36 -35 2
-11 12 -31 22 -44 11 -13 19 -29 19 -36 0 -6 9 -20 20 -30 11 -10 20 -24 20
-31 0 -21 50 -74 84 -88 48 -20 128 -91 143 -127 14 -33 79 -98 100 -99 14 0
43 -36 84 -103 16 -26 43 -56 61 -66 60 -35 131 -85 177 -127 25 -23 65 -53
89 -68 26 -16 48 -39 53 -56 14 -38 50 -61 129 -80 62 -16 65 -18 75 -53 7
-25 21 -44 42 -56 17 -11 34 -24 37 -30 4 -6 16 -11 27 -11 27 0 135 -56 142
-74 3 -8 43 -33 89 -55 46 -23 108 -57 138 -76 30 -19 58 -35 63 -35 5 0 28
-20 52 -43 24 -24 59 -49 77 -56 18 -7 60 -25 93 -41 33 -16 69 -31 80 -33 84
-21 261 -99 330 -146 17 -12 46 -21 68 -21 29 0 48 -8 78 -33 43 -38 97 -57
156 -57 39 0 87 -14 203 -60 30 -12 76 -26 102 -30 27 -5 52 -11 56 -14 5 -3
18 1 28 9 27 20 58 18 79 -5 29 -32 122 -70 154 -64 15 3 49 -1 75 -10 26 -9
64 -16 85 -16 21 0 52 -7 67 -15 16 -8 54 -15 84 -15 38 0 64 -6 85 -20 18
-12 47 -20 73 -20 24 0 57 -7 74 -16 24 -12 36 -14 55 -5 33 15 77 14 120 -4
20 -9 42 -14 49 -11 14 5 90 -6 191 -29 48 -11 78 -13 89 -7 11 6 36 4 72 -5
42 -11 61 -12 82 -3 22 9 35 8 65 -4 21 -9 52 -16 70 -16 18 0 43 -9 57 -19
33 -26 165 -23 185 4 10 15 30 18 106 20 52 2 103 8 115 14 11 6 48 11 81 11
50 0 62 4 75 22 14 20 23 21 118 19 74 -1 112 -6 135 -18 31 -17 33 -16 55 4
24 23 143 53 207 53 19 0 43 8 53 17 11 10 32 16 48 15 22 -2 34 4 46 23 9 14
24 25 33 25 9 0 32 16 51 35 19 19 37 35 41 35 3 0 6 -17 5 -37 -1 -29 3 -37
14 -34 8 1 38 9 65 16 28 7 88 16 134 19 89 7 83 4 184 92 13 11 17 23 13 40
-9 36 18 41 55 10 51 -43 97 -32 222 57 14 10 52 22 84 27 32 4 69 13 83 18
14 6 37 13 52 16 14 3 49 24 77 46 35 28 60 40 83 40 18 0 42 7 53 16 11 8 36
19 56 24 20 6 58 27 85 49 57 45 132 84 192 100 23 7 42 16 42 21 0 17 39 50
53 44 9 -3 44 27 89 75 59 63 83 81 112 87 21 3 51 18 68 32 20 17 41 25 58
24 21 -3 39 7 71 37 24 21 71 64 105 95 33 31 64 56 68 56 5 0 25 14 46 30 21
17 42 30 47 30 5 0 32 17 60 38 28 20 79 57 112 81 69 49 134 118 161 171 22
44 48 67 102 94 38 19 44 26 48 61 4 35 10 43 46 61 43 22 266 241 289 284 7
14 38 51 69 82 31 32 56 66 56 76 0 22 25 47 57 56 26 8 93 88 93 111 0 10 15
40 33 67 17 28 39 71 47 96 13 42 19 47 48 50 27 3 36 10 57 52 14 27 29 51
34 54 5 4 12 25 16 49 4 25 18 54 34 72 16 17 33 44 40 62 7 17 19 34 27 37 8
3 14 19 14 35 0 16 10 42 24 58 36 43 83 127 91 163 8 35 33 82 77 144 15 21
28 49 28 60 0 12 9 37 19 57 11 20 26 59 35 88 8 28 24 64 34 79 11 15 24 44
30 65 6 21 27 56 46 78 26 28 36 48 36 73 0 18 9 45 20 59 14 18 20 40 20 77
0 39 6 59 25 84 14 18 25 46 25 62 0 17 4 34 8 40 19 21 41 104 47 179 3 44
14 105 24 135 34 101 50 155 57 190 3 19 13 44 20 55 8 11 14 32 14 48 0 15 9
49 21 74 19 42 19 47 5 84 -12 29 -13 45 -6 65 7 19 7 36 -2 60 -9 27 -9 41 0
69 11 28 10 39 -2 63 -14 28 -14 31 14 63 26 30 29 42 30 100 0 61 -2 68 -30
92 -36 33 -37 42 -6 62 37 25 46 64 41 193 -3 64 -1 151 4 192 6 56 5 83 -4
105 -16 37 -14 161 4 193 8 14 10 35 5 55 -10 43 -13 75 -23 192 -4 55 -15
123 -24 150 -9 28 -21 82 -28 120 -6 39 -18 95 -27 125 -16 57 -20 99 -25 257
-1 56 -7 97 -15 105 -6 6 -12 24 -12 39 0 15 -4 31 -10 34 -5 3 -10 19 -10 34
0 16 -7 42 -15 57 -8 16 -15 41 -15 55 0 28 -13 75 -35 124 -14 31 -56 141
-82 209 -7 21 -23 50 -33 64 -11 14 -20 40 -20 59 0 18 -7 45 -16 58 -9 13
-13 29 -10 34 4 6 -3 27 -14 48 -11 21 -20 47 -20 58 0 27 -23 91 -52 146 -13
24 -36 78 -52 119 -16 41 -40 89 -53 107 -13 17 -23 38 -23 47 0 8 -11 27 -25
42 -14 15 -25 37 -25 49 0 12 -8 33 -19 46 -10 13 -28 44 -41 69 -13 25 -31
56 -41 69 -11 13 -19 31 -19 41 0 9 -12 27 -26 41 -35 32 -91 118 -99 150 -4
15 -22 42 -41 60 -19 18 -34 38 -34 44 0 5 -25 46 -56 90 -31 44 -63 93 -70
110 -7 16 -27 48 -44 70 -18 22 -43 61 -56 88 -21 39 -29 47 -53 47 -36 0 -48
15 -64 80 -13 55 -55 102 -145 162 -24 16 -42 36 -44 50 -2 17 -11 24 -33 28
-26 5 -31 10 -36 47 -6 48 -23 73 -50 73 -18 0 -48 26 -174 149 -22 21 -61 53
-87 70 -52 35 -131 111 -197 190 -33 40 -53 54 -88 64 -29 7 -50 21 -60 37 -9
14 -42 48 -74 75 -32 28 -61 58 -64 67 -3 10 -22 22 -40 27 -19 5 -48 19 -64
30 -16 12 -32 21 -36 21 -4 0 -29 20 -56 44 -27 25 -84 61 -127 82 -42 21 -96
50 -119 66 -23 16 -61 38 -85 49 -24 11 -58 29 -76 39 -27 15 -40 16 -64 8
-32 -11 -48 -1 -48 34 0 20 -55 68 -78 68 -9 0 -55 18 -102 40 -47 22 -97 40
-111 40 -14 0 -34 7 -45 15 -10 8 -26 15 -34 15 -8 0 -39 16 -67 35 -29 19
-56 35 -61 35 -21 0 -110 45 -147 75 -51 41 -78 55 -108 55 -13 0 -44 7 -70
16 -38 13 -53 14 -83 4 -31 -11 -38 -10 -57 8 -31 29 -126 72 -160 72 -15 0
-44 8 -65 19 -38 19 -114 36 -143 32 -9 -1 -34 9 -54 23 -41 28 -92 41 -131
33 -14 -2 -47 2 -72 10 -26 8 -78 16 -115 18 -37 3 -85 9 -105 15 -20 5 -73
10 -117 10 -58 0 -92 6 -124 20 -24 11 -54 20 -68 20 -13 0 -36 6 -52 14 -37
19 -149 24 -180 7 -24 -13 -41 -12 -256 15 -79 9 -329 23 -351 18z m291 -408
c22 1 61 5 88 9 36 6 52 4 65 -8 9 -8 37 -17 62 -20 25 -3 70 -11 100 -17 42
-9 67 -9 106 -1 47 11 58 9 149 -20 89 -30 101 -31 141 -21 67 18 99 15 163
-17 35 -18 67 -28 79 -24 13 3 39 -5 68 -22 37 -22 55 -26 86 -22 28 4 59 -2
104 -19 36 -13 78 -24 95 -24 17 0 40 -5 52 -12 12 -7 36 -13 52 -14 32 -3
104 -23 170 -48 22 -8 56 -15 75 -16 19 0 49 -9 65 -20 17 -11 38 -20 47 -20
9 0 26 -13 36 -28 16 -21 34 -30 79 -40 32 -6 96 -30 140 -52 45 -22 91 -40
101 -40 11 0 48 -22 83 -50 35 -27 70 -50 77 -50 7 0 25 -6 40 -14 16 -8 71
-19 123 -25 88 -10 96 -12 122 -43 16 -18 37 -42 47 -53 25 -29 134 -92 171
-100 19 -4 37 -18 47 -34 14 -25 52 -51 159 -111 40 -22 123 -110 123 -130 0
-9 67 -54 130 -88 24 -13 59 -37 77 -53 19 -16 53 -38 76 -50 38 -20 197 -172
197 -190 0 -4 33 -35 73 -68 39 -33 94 -89 121 -125 27 -36 67 -77 88 -91 31
-21 38 -31 38 -59 0 -42 26 -65 82 -74 34 -6 52 -16 85 -52 22 -25 48 -62 56
-82 9 -22 28 -43 46 -52 34 -18 51 -44 51 -77 0 -24 36 -89 57 -102 7 -4 20
-22 30 -40 9 -18 49 -68 90 -112 40 -44 73 -86 73 -93 0 -24 59 -142 99 -198
23 -32 41 -64 41 -73 0 -9 11 -38 24 -66 14 -27 27 -62 30 -77 4 -15 31 -54
61 -86 44 -47 55 -67 55 -93 0 -30 13 -55 92 -171 10 -15 18 -41 18 -59 0 -17
5 -50 11 -73 10 -38 25 -72 113 -258 19 -40 38 -86 41 -102 4 -17 17 -39 29
-51 19 -18 24 -35 29 -114 4 -56 13 -101 22 -114 8 -12 15 -34 15 -50 0 -15
10 -47 21 -70 18 -34 21 -58 20 -131 -1 -67 3 -96 15 -114 14 -22 15 -32 4
-77 -12 -48 -11 -59 14 -138 15 -47 38 -106 51 -132 26 -48 32 -103 15 -136
-8 -14 -7 -27 5 -48 19 -37 19 -65 1 -94 -13 -19 -12 -34 3 -117 10 -52 24
-108 30 -123 14 -36 14 -68 0 -104 -6 -16 -13 -116 -15 -233 -3 -113 -9 -248
-14 -300 -6 -52 -12 -120 -14 -150 -6 -74 -12 -116 -25 -170 -6 -25 -11 -80
-11 -122 0 -42 -5 -89 -11 -105 -7 -15 -14 -55 -16 -88 -2 -33 -4 -78 -6 -100
-2 -45 -14 -68 -28 -59 -19 11 -38 -17 -33 -46 4 -20 0 -37 -15 -57 -16 -21
-24 -50 -28 -104 -4 -56 -14 -90 -39 -141 -21 -42 -34 -82 -34 -107 0 -24 -13
-67 -35 -112 -19 -41 -35 -87 -35 -104 0 -16 -10 -46 -21 -65 -12 -19 -25 -63
-29 -99 -7 -50 -14 -69 -33 -85 -13 -12 -35 -43 -47 -69 -12 -26 -38 -65 -58
-85 -31 -33 -59 -93 -92 -196 -5 -16 -16 -39 -25 -52 -8 -13 -15 -30 -15 -39
0 -19 -45 -110 -75 -150 -12 -16 -25 -42 -28 -56 -4 -14 -44 -71 -89 -126
-118 -141 -179 -243 -197 -323 -7 -33 -18 -52 -42 -70 -19 -14 -54 -46 -79
-71 -25 -25 -72 -65 -105 -87 -59 -41 -124 -121 -140 -173 -4 -13 -21 -39 -36
-57 -34 -39 -37 -67 -8 -83 15 -7 18 -14 11 -21 -8 -8 -19 -6 -37 6 -15 10
-32 15 -39 13 -36 -14 -126 -92 -135 -117 -7 -21 -26 -37 -68 -58 -39 -20 -86
-59 -146 -121 -48 -50 -92 -91 -96 -91 -4 0 -19 -10 -33 -23 -36 -33 -111 -87
-121 -87 -5 0 -27 -16 -48 -35 -22 -19 -46 -35 -54 -35 -8 0 -33 -16 -56 -37
-24 -22 -54 -39 -77 -42 -30 -5 -41 -13 -58 -46 -18 -36 -24 -40 -59 -40 -22
0 -40 -5 -43 -13 -9 -28 -54 -71 -89 -85 -21 -8 -51 -29 -67 -46 -16 -16 -43
-33 -60 -37 -34 -7 -68 -27 -106 -59 -14 -12 -34 -25 -45 -28 -49 -14 -96 -34
-112 -49 -10 -9 -34 -21 -53 -26 -19 -6 -63 -21 -97 -35 -34 -14 -80 -28 -102
-32 -22 -3 -61 -22 -88 -41 -29 -21 -60 -34 -79 -34 -17 0 -72 -20 -123 -45
-51 -25 -101 -45 -111 -45 -10 0 -31 -7 -46 -15 -16 -8 -40 -15 -53 -15 -13 0
-39 -9 -57 -21 -25 -15 -53 -21 -107 -23 -50 -1 -83 -7 -100 -19 -15 -9 -37
-17 -49 -17 -13 0 -48 -9 -78 -21 -30 -12 -79 -25 -109 -30 -29 -5 -66 -16
-83 -25 -16 -8 -52 -18 -81 -21 -29 -3 -67 -14 -85 -25 -30 -18 -42 -19 -134
-11 -81 7 -106 6 -127 -6 -26 -14 -78 -25 -186 -40 -44 -6 -72 -4 -103 6 -24
8 -51 11 -60 8 -53 -22 -171 -34 -247 -26 -44 5 -109 7 -145 5 -77 -5 -63 -6
-225 2 -80 4 -153 2 -190 -5 -53 -10 -68 -9 -133 11 -54 16 -79 19 -91 11 -11
-7 -22 -7 -36 3 -11 7 -47 17 -79 23 -33 6 -68 19 -79 28 -15 15 -38 18 -117
19 -66 0 -104 5 -115 14 -8 7 -32 16 -53 21 -20 4 -77 17 -127 29 -55 13 -103
19 -126 15 -29 -5 -42 -2 -65 18 -16 14 -48 28 -71 32 -23 3 -53 15 -67 26
-13 10 -30 19 -36 19 -7 0 -27 8 -44 19 -19 11 -61 21 -109 25 -72 6 -86 11
-160 58 -83 52 -121 62 -174 43 -18 -6 -24 -3 -32 18 -12 31 -69 67 -108 67
-19 0 -44 12 -69 33 -47 40 -107 72 -163 87 -22 6 -45 19 -51 30 -6 11 -25 27
-43 36 -18 9 -42 25 -54 36 -17 16 -25 18 -41 9 -29 -15 -30 -15 -49 25 -15
29 -30 41 -78 61 -33 14 -67 33 -75 44 -9 11 -37 26 -63 34 -27 8 -60 23 -74
35 -14 11 -30 20 -36 20 -5 0 -25 18 -44 39 -18 22 -44 43 -56 47 -12 3 -38
18 -57 32 -64 49 -101 63 -150 57 -25 -3 -51 -1 -59 4 -12 8 -9 15 17 39 39
36 41 70 8 101 -19 18 -31 21 -54 16 -25 -5 -31 -3 -36 13 -8 25 -64 85 -94
101 -12 6 -22 20 -22 30 0 11 -7 21 -14 24 -32 13 -125 94 -136 119 -7 15 -31
45 -53 66 -23 22 -53 55 -66 72 -13 17 -41 43 -63 56 -22 14 -48 41 -60 59
-11 19 -38 45 -59 57 -30 16 -50 41 -80 94 -23 42 -47 74 -59 77 -13 3 -20 14
-20 30 0 18 -19 40 -77 88 -104 85 -112 96 -113 147 0 28 -7 53 -20 69 -11 14
-20 31 -20 38 0 6 -18 26 -40 44 -27 21 -43 44 -50 72 -7 25 -18 43 -30 46
-17 5 -50 72 -50 103 0 20 -67 120 -85 126 -18 7 -65 79 -65 99 0 9 -14 29
-31 45 -29 26 -31 32 -26 72 9 67 -33 142 -151 269 -47 50 -52 60 -42 78 15
29 -7 138 -34 169 -14 16 -22 44 -27 99 -6 54 -16 94 -38 137 -21 41 -33 83
-37 131 -6 60 -11 73 -37 97 -29 25 -30 30 -20 63 13 41 3 90 -27 128 -12 15
-20 40 -20 63 0 22 -7 46 -18 58 -24 27 -45 101 -37 127 7 22 -10 74 -33 101
-12 14 -12 25 -1 68 10 39 10 53 1 62 -15 15 -15 58 -2 94 9 22 7 31 -10 49
-22 23 -19 49 6 59 11 4 12 10 4 25 -5 11 -10 28 -10 37 0 10 -7 26 -17 36
-15 17 -15 19 2 38 27 29 32 119 10 154 -16 24 -20 86 -15 201 1 27 -10 164
-16 192 -3 16 -16 25 -47 33 -47 13 -87 36 -87 50 0 15 21 12 41 -6 12 -11 25
-13 49 -7 25 7 35 17 46 48 7 22 14 51 14 65 0 13 7 44 16 68 15 37 15 48 4
83 -11 32 -11 47 -2 73 7 18 12 44 12 57 0 14 5 30 11 36 8 8 8 17 0 31 -16
30 -14 72 8 165 11 45 22 118 26 162 3 44 11 95 17 112 16 45 0 62 -42 46 -23
-9 -32 -8 -40 3 -16 18 -4 34 25 34 28 0 65 43 65 74 0 12 13 48 30 81 16 33
30 76 30 95 0 24 6 39 20 48 12 7 27 36 37 73 11 40 25 66 39 76 13 8 28 30
35 50 9 29 8 41 -6 73 -31 68 1 173 71 233 44 38 56 71 34 93 -7 7 3 28 30 64
22 30 50 80 62 112 11 32 25 61 29 64 5 3 9 18 9 34 0 18 11 42 29 63 21 24
32 48 37 86 5 36 16 64 34 85 44 51 66 89 79 134 6 23 16 42 21 42 16 0 69 81
80 122 6 21 21 45 35 54 13 9 29 30 35 48 9 29 39 71 117 166 45 54 85 130 79
147 -11 28 4 51 44 67 25 10 48 30 63 53 14 21 32 44 41 52 9 7 16 19 16 26 0
6 10 20 21 31 12 10 39 46 60 79 21 33 53 69 71 79 57 33 133 106 144 139 7
19 23 38 40 46 16 8 35 23 42 33 7 10 22 18 32 18 12 0 29 19 51 59 26 47 41
62 78 79 74 35 191 122 217 164 13 21 32 38 40 38 9 0 34 16 55 35 22 19 45
35 52 35 6 0 30 19 52 41 22 22 53 43 69 46 18 4 35 18 48 40 12 19 41 45 67
59 25 14 73 45 106 69 33 24 76 50 95 56 44 15 168 84 195 109 11 10 72 43
135 73 64 29 131 68 150 84 20 17 53 36 75 42 22 6 49 18 59 26 11 8 30 15 42
15 12 0 36 11 52 25 19 16 42 25 64 25 21 0 51 11 79 29 24 16 71 40 104 52
33 12 73 31 90 41 16 10 46 18 66 18 19 0 60 7 90 16 53 16 130 30 221 41 35
4 51 11 63 29 13 20 24 24 61 24 25 0 66 9 92 19 26 11 83 22 127 25 131 9
190 21 221 41 21 15 48 20 99 22 110 2 238 17 262 31 32 18 52 15 85 -13 33
-28 79 -32 118 -10 14 8 34 14 46 15 11 0 36 8 55 17 24 12 56 16 116 15 75
-2 84 0 100 21 l17 24 16 -31 c13 -27 20 -31 55 -30z"/>
<path d="M9715 20126 c-37 -17 -57 -21 -74 -14 -17 6 -32 3 -56 -12 -28 -18
-43 -20 -97 -14 -68 7 -117 -8 -136 -42 -5 -10 -36 -20 -83 -29 -41 -7 -97
-24 -125 -37 -27 -14 -69 -28 -94 -32 -25 -4 -55 -13 -66 -21 -29 -19 -38 -70
-19 -106 51 -97 48 -87 26 -115 -12 -15 -21 -38 -21 -53 0 -14 -6 -38 -14 -52
-18 -36 -34 -111 -39 -191 -5 -70 0 -82 38 -90 14 -3 19 -11 18 -28 -1 -14 0
-42 3 -63 5 -31 12 -41 43 -57 21 -10 50 -36 66 -57 33 -44 85 -92 101 -93 6
0 29 -18 52 -40 22 -22 47 -40 56 -40 8 0 30 -14 48 -30 18 -17 49 -35 69 -40
20 -6 42 -17 49 -25 20 -24 68 -18 94 10 30 32 36 32 36 -5 0 -35 22 -48 105
-61 28 -4 88 -14 135 -23 118 -21 519 -21 570 0 19 8 51 19 70 24 19 5 68 18
108 29 43 11 88 17 111 14 39 -5 84 6 196 48 28 10 58 19 67 19 34 0 113 42
163 88 45 40 146 92 181 92 5 0 44 33 87 74 75 71 117 131 117 168 0 9 20 34
44 54 49 41 92 123 102 195 13 92 -41 199 -100 199 -38 0 -66 28 -66 64 0 41
-5 45 -100 80 -41 15 -99 40 -128 54 -57 29 -59 29 -197 38 -49 4 -98 12 -110
19 -11 7 -51 15 -89 19 -37 3 -75 11 -82 17 -8 7 -27 9 -46 5 -21 -4 -44 -1
-63 8 -45 21 -127 46 -151 46 -12 0 -37 6 -55 13 -23 9 -64 13 -124 10 -49 -2
-106 -3 -125 -2 -19 1 -78 1 -130 0 -232 -4 -266 -4 -290 2 -16 4 -43 -2 -75
-17z"/>
<path d="M12264 19535 c-12 -30 70 -109 135 -130 12 -3 45 -22 74 -41 28 -19
56 -34 62 -34 6 0 31 -11 57 -25 26 -14 56 -25 68 -25 22 0 65 -21 140 -70 47
-30 89 -37 107 -19 6 6 26 9 44 7 30 -3 34 -6 35 -33 1 -51 3 -56 22 -54 32 3
42 -1 42 -16 0 -22 39 -53 115 -91 39 -19 84 -42 100 -51 17 -9 35 -19 42 -22
6 -3 59 -38 117 -78 93 -62 113 -72 166 -78 51 -6 64 -4 81 11 30 27 23 58
-20 97 -22 19 -49 40 -60 47 -15 7 -21 20 -21 44 0 19 -9 45 -21 60 -11 15
-24 39 -28 54 -6 21 -17 30 -52 41 -57 18 -70 23 -157 62 l-72 32 -23 -21
c-32 -30 -43 -28 -64 16 -14 30 -27 40 -63 50 -25 8 -58 20 -75 27 -44 20
-122 45 -188 60 -32 7 -66 20 -76 29 -43 39 -161 59 -200 34 -17 -10 -26 -6
-64 29 -27 25 -63 47 -88 53 -24 7 -54 20 -67 31 -29 23 -60 25 -68 4z"/>
<path d="M7672 19479 c-25 -12 -47 -30 -52 -44 -12 -32 -25 -38 -50 -23 -19
11 -24 10 -40 -10 -14 -17 -25 -21 -43 -17 -19 5 -35 -4 -77 -39 -39 -33 -62
-46 -85 -46 -20 0 -40 -9 -54 -24 -12 -13 -39 -26 -59 -30 -43 -6 -119 -53
-187 -114 -48 -42 -48 -43 -39 -85 13 -59 7 -77 -27 -84 -23 -4 -27 -9 -19
-19 7 -7 8 -27 5 -46 -9 -47 13 -66 58 -51 18 6 46 14 64 18 22 4 51 27 94 75
48 52 72 70 98 75 20 4 47 15 62 26 14 10 37 23 50 28 13 5 62 37 109 70 47
34 105 67 130 74 30 8 60 27 88 55 24 24 50 41 56 39 23 -9 36 8 42 55 9 65
-1 95 -39 118 -38 23 -31 23 -85 -1z"/>
<path d="M8425 19388 c-11 -6 -37 -26 -58 -45 -20 -18 -43 -33 -51 -33 -8 0
-47 -31 -87 -69 -86 -79 -116 -96 -184 -106 -30 -4 -70 -21 -100 -40 -64 -41
-142 -81 -180 -92 -16 -4 -43 -26 -60 -49 -17 -23 -56 -55 -90 -74 -33 -18
-98 -63 -145 -100 -47 -36 -104 -78 -127 -93 -24 -15 -43 -32 -43 -37 0 -5
-20 -15 -45 -21 -27 -7 -50 -20 -60 -36 -9 -13 -27 -29 -40 -35 -14 -6 -34
-26 -45 -45 -11 -18 -32 -38 -47 -44 -42 -16 -73 -49 -73 -79 0 -34 -8 -42
-32 -29 -21 12 -41 2 -92 -45 -25 -24 -28 -32 -22 -67 11 -70 -28 -101 -81
-64 -28 19 -48 11 -63 -26 -7 -16 -20 -29 -28 -29 -26 0 -90 -50 -96 -76 -5
-18 -13 -24 -35 -24 -19 0 -34 -8 -44 -24 -20 -30 -127 -112 -175 -134 -67
-30 -111 -71 -124 -114 l-12 -40 -45 6 c-39 5 -49 3 -80 -22 -20 -16 -74 -51
-121 -77 -97 -56 -196 -138 -204 -169 -3 -13 -19 -27 -41 -35 -24 -8 -41 -24
-54 -50 -11 -20 -27 -43 -35 -50 -9 -8 -16 -28 -16 -45 0 -17 -9 -51 -20 -75
-11 -24 -20 -59 -20 -78 0 -26 -8 -42 -30 -63 -27 -25 -32 -40 -46 -127 -19
-114 -21 -161 -10 -185 6 -13 -1 -25 -24 -46 -34 -31 -43 -79 -21 -106 9 -11
11 -34 6 -79 -11 -99 13 -124 87 -93 11 5 20 1 27 -13 9 -17 8 -24 -8 -40 -11
-11 -17 -22 -14 -25 27 -27 146 71 163 134 7 25 18 41 31 45 29 9 196 181 219
225 10 19 38 55 61 80 23 25 48 55 56 66 7 12 33 32 56 44 40 22 87 71 184
194 23 29 63 68 89 87 26 19 77 63 113 98 36 35 74 71 85 80 26 23 73 93 77
115 3 12 19 24 43 32 21 8 68 38 105 67 36 29 78 61 94 70 15 10 27 24 27 32
0 19 59 85 76 85 17 0 49 34 126 132 43 56 69 80 95 89 43 14 113 82 113 109
0 11 12 26 29 34 16 9 31 22 34 29 3 8 21 17 40 21 45 8 55 21 59 76 3 41 6
45 31 48 19 2 34 14 47 34 10 17 41 43 69 60 29 16 56 40 61 53 5 14 16 25 24
25 19 0 146 110 146 126 0 7 25 24 55 38 58 26 75 51 75 106 0 35 38 65 69 55
14 -4 35 4 66 25 25 17 45 35 45 39 0 16 84 98 118 115 17 9 32 21 32 25 0 5
12 24 26 41 26 30 61 52 137 86 36 17 37 19 37 69 0 43 4 55 22 67 17 11 20
20 14 42 -11 44 -94 71 -141 44z"/>
<path d="M11722 19247 c-12 -13 -22 -27 -22 -31 0 -4 21 -30 48 -56 26 -27 63
-68 82 -90 19 -23 51 -58 71 -79 20 -20 42 -46 48 -59 7 -13 26 -28 42 -34 21
-7 32 -19 36 -39 3 -19 37 -59 99 -119 52 -49 94 -94 94 -99 0 -19 251 -233
284 -242 21 -6 37 -19 47 -38 12 -25 71 -88 291 -307 22 -23 67 -69 99 -103
33 -35 76 -69 101 -80 45 -19 98 -71 98 -97 0 -8 26 -41 58 -73 31 -33 65 -68
74 -78 109 -114 179 -172 214 -178 63 -11 63 -11 57 -50 -6 -35 -3 -39 84
-123 49 -48 111 -112 137 -144 27 -33 87 -84 145 -123 55 -37 104 -78 110 -92
16 -34 74 -105 144 -175 42 -42 66 -58 85 -58 78 0 202 -76 242 -149 17 -29
32 -42 54 -47 17 -3 38 -12 46 -18 8 -7 33 -22 55 -33 22 -11 54 -28 71 -38
50 -30 96 -10 167 71 l59 67 -7 61 c-4 34 -16 78 -26 98 -11 21 -19 55 -19 76
0 22 -7 59 -15 82 -8 23 -15 54 -15 68 0 15 -13 37 -36 59 -32 30 -35 36 -26
62 8 22 5 43 -10 90 -23 72 -71 128 -118 137 -32 7 -90 71 -90 100 0 30 -48
47 -111 40 -70 -7 -99 4 -99 38 0 30 -75 94 -130 111 -41 12 -92 47 -135 90
-45 46 -121 85 -164 85 -24 0 -35 9 -61 51 -23 35 -54 64 -104 96 -39 26 -98
72 -131 104 -33 31 -80 66 -104 79 -68 34 -134 83 -237 176 -53 48 -147 85
-166 66 -21 -21 -38 -13 -56 26 -28 61 -63 103 -97 118 -18 7 -47 25 -64 40
-26 22 -37 25 -68 19 -30 -5 -35 -4 -30 9 11 29 -11 64 -60 92 -26 16 -59 39
-73 52 -89 83 -202 162 -245 171 -19 4 -35 17 -43 33 -7 15 -22 30 -33 33 -11
4 -60 46 -109 94 -54 53 -103 92 -122 97 -19 6 -38 21 -48 38 -10 20 -29 33
-59 42 -23 7 -52 21 -63 30 -13 13 -37 19 -73 20 -40 1 -61 7 -87 28 -43 32
-58 33 -86 3z"/>
<path d="M8652 18970 c-23 -16 -42 -33 -42 -38 0 -4 -25 -36 -55 -72 -30 -35
-55 -68 -55 -74 0 -14 -70 -117 -111 -161 -20 -22 -44 -54 -53 -72 -9 -18 -45
-65 -81 -105 -35 -40 -67 -86 -71 -103 -4 -16 -29 -55 -56 -86 -28 -31 -64
-85 -82 -120 -21 -44 -43 -71 -68 -88 -22 -14 -38 -32 -38 -44 0 -10 -8 -21
-19 -24 -10 -2 -25 -19 -33 -36 -9 -18 -46 -66 -83 -107 -88 -97 -145 -169
-145 -182 0 -6 -18 -30 -40 -54 -22 -24 -40 -49 -40 -56 -1 -27 -55 -94 -177
-220 -14 -15 -40 -53 -57 -85 -17 -32 -45 -67 -61 -78 -17 -11 -44 -40 -59
-65 -58 -91 -76 -115 -95 -127 -34 -21 -101 -113 -101 -139 0 -14 7 -27 15
-30 21 -9 36 -39 29 -59 -6 -14 -15 -16 -50 -10 -71 10 -130 -35 -169 -128 -9
-21 -26 -43 -40 -49 -13 -6 -29 -24 -34 -40 -6 -16 -26 -48 -45 -71 -19 -23
-46 -64 -60 -92 -15 -27 -49 -76 -77 -107 -27 -32 -55 -72 -61 -90 -12 -34
-63 -125 -105 -187 -13 -19 -26 -45 -29 -58 -4 -13 -44 -60 -91 -106 -72 -70
-92 -96 -130 -175 -27 -56 -54 -98 -66 -104 -40 -19 -125 -128 -147 -186 -12
-32 -36 -73 -54 -92 -55 -59 -81 -103 -81 -139 0 -29 -4 -36 -30 -44 -38 -12
-62 -33 -90 -78 -13 -20 -36 -41 -52 -48 -34 -14 -69 -73 -65 -108 2 -13 -2
-30 -8 -38 -8 -10 -9 -47 -3 -132 4 -65 7 -133 5 -150 -2 -18 4 -53 12 -77 10
-29 17 -103 21 -208 4 -114 10 -169 20 -184 7 -12 17 -39 21 -60 4 -21 14 -50
23 -64 10 -15 18 -56 22 -107 4 -64 10 -90 28 -113 17 -23 20 -38 16 -64 -7
-35 3 -62 31 -90 21 -22 31 -20 59 10 16 17 31 25 44 21 12 -3 27 3 36 13 9
10 33 21 53 25 78 14 114 66 93 134 -16 55 -15 58 25 71 30 10 38 9 54 -5 27
-24 42 -15 84 48 40 59 44 78 21 97 -12 10 -13 16 -4 26 6 8 17 14 24 14 6 0
30 13 52 29 40 29 82 100 97 164 4 15 19 49 35 75 16 26 32 60 35 76 4 16 19
45 34 64 27 35 36 97 19 133 -6 12 1 19 32 31 29 12 45 27 60 56 26 51 26 58
1 65 -13 3 -20 14 -20 31 0 30 9 39 75 74 48 26 59 40 90 112 8 19 20 43 27
54 10 15 10 20 1 23 -28 10 -54 39 -48 53 11 26 66 63 103 69 32 6 38 11 54
55 9 27 16 65 15 84 -2 29 2 37 20 41 12 3 37 28 55 56 27 41 33 59 32 102 0
48 2 52 27 57 18 3 30 15 40 38 7 18 32 67 55 108 24 41 48 95 54 119 6 24 20
60 31 80 10 20 19 39 19 44 0 5 13 27 29 50 31 45 90 159 170 328 28 59 61
120 74 135 13 16 27 47 30 68 3 22 17 51 30 65 29 32 87 135 87 155 0 17 74
158 106 201 35 48 124 220 124 241 0 10 15 44 34 74 19 31 38 69 42 85 3 17
18 46 33 65 54 72 81 115 81 131 0 9 6 22 13 28 8 6 19 30 26 52 10 34 10 47
0 66 -18 33 -3 54 51 73 34 12 45 22 51 44 5 16 21 43 37 60 35 36 52 68 52
93 0 10 16 40 35 67 19 27 35 54 35 60 0 6 18 38 40 71 22 33 40 70 40 81 0
12 9 33 20 47 24 30 25 41 5 57 -24 20 -18 40 11 40 56 0 84 41 84 124 0 36 4
44 30 59 17 10 30 22 30 26 0 5 10 23 23 42 26 40 56 132 57 174 0 17 2 57 5
90 7 76 -12 149 -41 153 -11 2 -39 -11 -62 -28z"/>
<path d="M11324 18697 c6 -36 3 -46 -14 -62 -22 -20 -26 -50 -9 -60 6 -4 27
-41 46 -83 20 -43 50 -98 67 -124 45 -68 89 -137 101 -156 6 -9 17 -28 26 -42
9 -14 19 -36 22 -50 4 -14 22 -43 42 -64 19 -22 35 -49 36 -60 1 -21 43 -102
90 -172 14 -22 31 -55 38 -75 6 -20 23 -51 36 -69 13 -18 30 -49 36 -69 7 -19
25 -53 40 -75 16 -21 29 -46 29 -54 0 -8 16 -32 35 -53 24 -26 35 -49 35 -69
0 -21 12 -42 40 -72 22 -24 43 -54 47 -68 3 -14 21 -44 39 -67 19 -23 34 -45
34 -50 0 -16 64 -93 77 -93 7 0 20 -15 29 -32 22 -43 52 -76 88 -95 25 -13 28
-19 23 -48 -7 -40 12 -70 44 -70 18 0 25 -8 35 -41 15 -52 40 -100 75 -144 15
-19 37 -53 49 -75 22 -39 41 -65 106 -143 17 -20 39 -53 49 -72 22 -44 57 -88
116 -148 25 -26 54 -68 64 -94 10 -27 26 -50 36 -53 35 -11 77 -55 84 -87 9
-39 80 -143 116 -169 15 -11 42 -45 60 -77 18 -31 45 -73 61 -92 16 -19 47
-57 68 -83 22 -27 40 -53 40 -58 0 -5 15 -26 34 -47 81 -87 126 -148 137 -181
16 -49 59 -111 119 -169 27 -26 52 -61 56 -77 13 -55 54 -133 79 -149 14 -9
25 -22 25 -29 0 -20 78 -135 99 -146 10 -6 34 -44 55 -85 20 -41 53 -94 74
-118 20 -24 50 -65 67 -91 16 -26 39 -50 50 -53 11 -3 29 -22 40 -42 11 -20
29 -38 40 -40 11 -2 30 -14 43 -25 19 -18 26 -19 42 -9 26 16 37 -3 16 -27
-25 -27 -19 -66 19 -126 20 -31 44 -75 54 -98 11 -26 46 -69 91 -110 63 -58
77 -67 110 -67 30 0 44 6 64 31 14 17 26 35 26 41 0 5 9 21 20 35 11 14 20 37
20 52 0 33 9 47 37 55 14 5 25 18 28 34 3 15 12 48 20 73 8 26 15 53 15 61 0
8 11 35 24 60 13 25 27 65 31 89 6 44 22 89 50 142 18 34 20 108 3 125 -14 14
-3 28 26 34 24 4 87 196 93 284 4 58 3 63 -26 90 -29 28 -31 33 -34 120 l-3
92 -98 106 c-54 58 -108 108 -120 112 -11 4 -38 22 -59 40 -20 19 -46 34 -57
34 -13 0 -28 13 -40 33 -11 18 -51 56 -89 85 -38 29 -72 60 -75 68 -3 8 -17
19 -31 24 -14 5 -25 16 -25 24 0 9 -10 21 -22 27 -12 7 -46 34 -74 61 -28 27
-68 56 -88 66 -24 12 -43 32 -59 62 -12 25 -40 58 -63 75 -22 16 -48 42 -56
57 -12 20 -35 32 -94 51 -77 24 -79 26 -77 54 2 26 -8 40 -65 92 -66 61 -82
76 -128 122 -13 13 -30 31 -39 39 -8 8 -29 32 -46 53 -17 20 -40 37 -50 37
-11 0 -28 14 -38 30 -22 36 -87 94 -117 104 -11 3 -26 22 -33 41 -6 19 -25 44
-41 55 -17 12 -53 41 -82 66 -44 37 -58 44 -95 44 -48 0 -57 18 -27 51 22 25
11 49 -23 49 -22 0 -38 13 -75 60 -27 32 -48 64 -48 69 0 5 -24 34 -54 64 -38
38 -66 57 -90 61 -31 6 -36 11 -36 35 0 31 -53 87 -122 129 -20 13 -48 42 -61
65 -14 24 -59 77 -101 120 -42 42 -76 83 -76 91 0 21 -147 182 -187 206 -19
11 -33 28 -33 38 0 11 -11 36 -25 56 -14 20 -27 47 -31 59 -3 12 -32 41 -65
65 -35 26 -59 51 -59 62 0 17 -47 60 -66 60 -4 0 -15 -7 -25 -16 -11 -10 -26
-13 -38 -9 -27 8 -16 35 15 35 32 0 30 8 -10 50 -19 19 -52 67 -74 105 -27 49
-53 79 -83 100 -24 16 -67 52 -94 80 -137 137 -268 235 -315 235 -21 0 -22 -3
-16 -43z m1286 -1482 c11 -13 10 -18 -4 -33 -22 -25 -21 -28 20 -70 60 -62 68
-85 49 -143 -17 -50 -31 -61 -42 -33 -3 8 4 25 16 38 l22 23 -41 40 c-22 22
-40 49 -40 59 0 11 -7 28 -15 38 -8 11 -15 28 -15 39 0 11 -6 18 -17 16 -53
-5 -60 25 -11 46 34 14 54 9 78 -20z"/>
<path d="M9248 18614 c-8 -9 -33 -17 -53 -17 -35 -2 -43 -9 -99 -79 -97 -122
-126 -167 -126 -190 0 -12 -11 -33 -24 -47 -13 -15 -31 -54 -40 -91 -9 -36
-25 -77 -35 -91 -30 -41 -53 -100 -57 -149 -2 -25 -16 -67 -31 -94 -15 -28
-27 -68 -28 -92 -1 -24 -9 -52 -18 -62 -9 -10 -17 -34 -17 -54 0 -24 -9 -47
-30 -73 -22 -28 -30 -48 -30 -78 0 -22 -9 -54 -19 -71 -11 -17 -22 -58 -26
-91 -4 -35 -15 -68 -25 -80 -20 -23 -90 -161 -90 -179 0 -6 -11 -32 -25 -58
-14 -26 -25 -60 -25 -76 0 -16 -16 -56 -35 -88 -20 -34 -35 -71 -35 -90 0 -17
-8 -42 -18 -55 -11 -13 -27 -46 -37 -74 -10 -27 -27 -59 -37 -71 -10 -11 -18
-29 -18 -40 0 -10 -9 -32 -20 -49 -11 -16 -20 -40 -20 -53 0 -13 -9 -52 -21
-88 -11 -35 -18 -72 -15 -81 4 -10 -2 -24 -14 -35 -11 -10 -20 -25 -20 -32 0
-7 -11 -25 -25 -40 -14 -15 -25 -39 -25 -53 0 -31 -34 -89 -61 -103 -12 -7
-19 -21 -19 -38 0 -16 -7 -37 -15 -48 -8 -10 -15 -26 -15 -35 0 -9 -11 -37
-25 -63 -14 -26 -25 -51 -25 -56 0 -5 -11 -26 -25 -46 -17 -25 -25 -51 -25
-78 0 -23 -5 -47 -12 -54 -12 -12 -46 -96 -75 -182 -14 -44 -35 -90 -80 -174
-12 -22 -27 -59 -33 -81 -10 -38 -38 -99 -122 -267 -21 -43 -38 -86 -38 -95
-1 -10 -9 -36 -20 -58 -11 -22 -19 -45 -20 -51 0 -6 -10 -24 -22 -40 -13 -15
-33 -58 -44 -94 -39 -116 -61 -167 -93 -213 -17 -25 -31 -52 -31 -60 0 -8 -8
-25 -19 -38 -24 -32 -61 -116 -62 -143 0 -11 -12 -44 -27 -72 -85 -160 -85
-160 -78 -197 5 -29 11 -36 34 -39 16 -2 27 -9 27 -18 0 -15 -17 -17 -46 -6
-26 11 -77 -39 -85 -82 -4 -20 -15 -47 -26 -59 -11 -12 -28 -52 -38 -90 -10
-37 -34 -91 -53 -120 -33 -49 -87 -174 -87 -201 0 -7 -7 -26 -16 -43 -18 -35
-11 -65 16 -72 11 -3 20 -13 20 -22 0 -11 -6 -15 -17 -11 -26 8 -80 -61 -104
-131 -11 -32 -32 -71 -47 -88 -16 -16 -34 -52 -41 -80 -10 -40 -64 -161 -100
-225 -16 -27 -51 -125 -51 -141 0 -9 -9 -24 -20 -34 -17 -15 -20 -31 -20 -95
0 -57 4 -81 15 -90 8 -7 19 -29 25 -50 8 -31 22 -47 73 -81 34 -23 79 -59 101
-81 21 -21 43 -38 50 -38 6 0 51 -20 101 -45 163 -82 214 -63 433 166 77 80
143 155 146 167 4 12 21 29 37 38 16 8 37 30 46 49 9 19 24 37 33 40 26 8 78
84 85 125 6 34 12 41 70 70 61 31 69 40 89 102 3 10 18 20 33 24 76 17 252
274 253 368 0 26 8 48 25 68 22 26 25 39 25 106 0 76 0 77 36 107 39 33 44 47
64 209 7 51 17 87 30 104 11 13 20 32 20 41 0 10 7 26 15 37 19 25 19 73 0 80
-21 9 -19 48 5 69 11 10 20 29 20 42 0 13 11 34 25 47 14 13 25 34 25 49 0 14
15 55 34 91 19 37 42 92 51 123 17 57 17 58 -4 72 -31 20 -26 48 15 85 43 40
55 96 30 144 -27 52 -21 121 14 169 17 23 35 63 41 89 20 87 28 356 14 441 -5
31 -2 56 14 98 12 31 21 75 21 99 0 25 6 48 14 55 17 14 24 63 31 207 4 93 2
113 -10 118 -24 9 -17 26 9 26 33 0 66 48 66 93 0 20 4 39 10 42 5 3 14 24 20
45 7 25 22 48 40 62 17 12 30 28 30 37 0 8 10 25 23 39 13 14 23 38 24 60 3
52 41 159 75 210 16 24 35 59 43 78 8 19 21 34 29 34 20 0 24 7 47 96 11 42
29 94 40 116 15 28 22 71 28 151 4 62 13 122 19 134 7 12 12 31 12 43 0 11 18
49 40 84 45 72 46 73 24 97 -14 16 -14 20 6 47 27 36 21 61 -21 84 -46 27 -37
59 21 78 67 22 72 28 68 69 -6 49 52 284 102 411 36 90 43 130 30 175 -10 36
-9 52 9 113 12 39 26 74 31 77 6 3 10 23 10 43 0 20 7 62 15 92 21 78 19 136
-4 159 -30 30 -81 53 -104 47 -11 -3 -33 2 -48 10 -35 18 -41 18 -61 -2z
m-1480 -5530 c3 -22 -99 -154 -119 -154 -14 0 -139 -125 -139 -139 0 -7 -30
-44 -67 -83 -37 -38 -92 -104 -123 -147 -30 -43 -69 -98 -87 -122 -18 -24 -39
-53 -47 -64 -11 -16 -18 -18 -33 -9 -29 18 -29 52 1 65 14 7 28 20 31 30 4 10
33 44 66 75 32 32 59 66 59 76 0 10 14 47 31 84 31 65 33 91 14 151 -6 18 -1
24 26 36 19 8 40 21 48 30 7 10 19 17 26 17 7 0 23 8 36 18 13 10 51 26 84 36
48 15 69 29 110 72 52 56 78 65 83 28z"/>
<path d="M10045 18611 c-51 -25 -67 -39 -90 -76 -11 -16 -31 -46 -46 -65 -20
-27 -28 -51 -32 -100 -3 -36 -13 -82 -22 -103 -13 -31 -14 -45 -4 -80 7 -23
16 -46 21 -51 14 -17 9 -26 -14 -26 -13 0 -29 -4 -36 -8 -16 -11 -44 -117 -37
-145 10 -42 -13 -206 -35 -251 -21 -41 -21 -45 -6 -75 18 -34 11 -86 -18 -126
-8 -12 -17 -61 -21 -118 -7 -95 -7 -98 14 -104 24 -6 28 -21 7 -29 -9 -4 -13
-24 -13 -67 0 -34 -6 -86 -14 -116 l-13 -53 29 -24 c20 -16 30 -33 30 -51 0
-23 6 -30 40 -41 74 -26 162 -32 211 -15 30 10 61 13 97 8 28 -3 102 -9 164
-11 108 -5 113 -4 171 25 109 55 156 147 153 301 -1 65 -25 186 -41 205 -5 6
-12 35 -15 65 -3 30 -12 73 -20 95 -7 22 -15 73 -18 113 -4 63 -8 77 -32 102
-25 27 -27 32 -20 88 6 55 5 61 -14 72 -16 8 -19 15 -12 28 13 25 -11 132 -38
168 -19 27 -21 34 -10 57 9 20 9 33 1 51 -6 13 -25 79 -43 146 -47 184 -71
214 -181 225 -41 4 -62 1 -93 -14z"/>
<path d="M10759 18596 c-5 -6 -21 -26 -35 -44 l-27 -33 22 -65 c11 -35 21 -76
21 -90 0 -13 9 -42 20 -64 14 -27 18 -49 14 -70 -4 -17 -2 -41 4 -53 34 -69
44 -112 51 -227 5 -84 13 -136 24 -157 10 -18 17 -51 17 -73 0 -23 6 -51 13
-63 6 -12 12 -51 12 -87 0 -53 6 -77 33 -132 17 -37 32 -71 32 -77 0 -6 9 -15
20 -21 12 -6 20 -21 20 -36 0 -14 5 -35 11 -46 6 -11 13 -50 15 -87 5 -88 11
-111 47 -190 38 -84 53 -101 88 -101 41 0 61 -26 58 -74 -3 -58 -1 -63 22 -85
17 -16 30 -19 69 -14 46 5 47 5 59 -27 16 -48 14 -66 -11 -82 l-21 -14 46 -90
c25 -49 53 -110 61 -136 9 -26 20 -56 25 -65 11 -21 39 -105 50 -148 5 -21 17
-35 42 -47 57 -27 65 -43 45 -84 -27 -57 -5 -144 37 -144 42 0 49 -12 32 -59
-18 -53 -18 -51 -1 -51 18 0 29 -17 21 -30 -5 -8 -11 -7 -21 1 -21 18 -28 4
-28 -56 0 -40 5 -62 22 -84 12 -17 22 -40 22 -53 0 -28 36 -110 53 -120 7 -4
24 -8 39 -8 35 0 44 -17 22 -41 -15 -17 -16 -24 -6 -53 7 -18 12 -41 12 -51 0
-10 14 -40 30 -67 25 -40 30 -59 30 -109 0 -33 6 -72 14 -88 9 -16 17 -77 22
-158 5 -108 4 -135 -9 -159 -37 -71 -44 -297 -11 -390 11 -30 13 -74 10 -175
-3 -102 0 -141 10 -161 8 -15 14 -34 14 -42 0 -17 54 -106 107 -175 22 -29 33
-55 33 -76 0 -18 7 -38 15 -45 8 -7 20 -31 26 -54 14 -57 46 -120 69 -141 11
-10 20 -28 20 -39 0 -12 12 -39 27 -61 15 -22 38 -62 51 -90 13 -27 38 -68 57
-91 19 -22 37 -53 40 -67 4 -14 13 -31 21 -38 8 -6 14 -20 14 -30 0 -41 33
-99 80 -138 27 -23 52 -51 56 -64 15 -47 85 -116 150 -147 35 -17 64 -35 64
-40 0 -11 110 -80 127 -80 15 0 125 -73 143 -95 7 -8 18 -15 26 -15 24 0 148
-119 171 -164 22 -43 57 -78 132 -129 24 -17 44 -39 47 -55 10 -40 33 -62 93
-88 45 -20 60 -23 90 -14 20 5 54 10 76 10 50 0 201 86 283 161 30 27 59 49
66 49 24 0 56 47 77 114 18 60 20 89 17 205 -3 120 -6 140 -25 172 -17 27 -23
52 -23 95 0 33 -4 75 -9 94 -5 19 -12 47 -15 62 -9 39 -52 86 -86 93 -39 8
-74 52 -96 117 -29 88 -93 184 -158 236 -9 7 -16 25 -16 40 0 31 -53 125 -100
178 -16 19 -30 39 -30 45 0 6 -14 30 -30 54 -17 24 -39 73 -50 107 -12 40 -31
74 -50 93 -16 16 -30 38 -30 49 0 35 -41 106 -91 156 -35 35 -49 57 -49 77 0
45 -57 184 -89 217 -16 17 -33 45 -37 61 -4 17 -19 46 -34 65 -15 19 -30 45
-34 57 -4 12 -26 54 -49 93 -80 134 -97 165 -108 193 -7 16 -27 36 -49 47 -46
23 -52 36 -33 72 16 32 4 68 -41 127 -14 19 -26 41 -26 47 0 7 -16 25 -35 40
-19 15 -38 38 -42 53 -8 36 -71 162 -93 186 -10 11 -21 30 -25 43 -11 36 -57
102 -72 102 -7 0 -22 -5 -32 -11 -14 -9 -27 -8 -60 7 -41 18 -43 20 -37 56 6
34 4 37 -23 43 -43 9 -57 29 -43 61 16 33 37 40 67 20 33 -22 45 -20 45 7 0
29 -14 46 -63 78 -34 21 -38 28 -33 56 3 22 -3 45 -19 75 -13 24 -36 68 -51
98 -49 98 -115 191 -142 202 -47 18 -57 25 -60 42 -3 11 4 16 23 16 33 0 41
22 20 54 -12 18 -26 26 -47 26 -30 0 -30 1 -24 41 6 36 2 46 -28 88 -19 25
-42 67 -52 91 -9 25 -25 54 -34 65 -10 11 -25 34 -33 50 -31 60 -87 115 -117
115 -38 0 -130 87 -130 124 0 14 -11 42 -25 62 -14 20 -25 44 -25 53 0 27 -82
181 -101 192 -12 6 -19 21 -19 40 0 39 -32 102 -63 122 -20 13 -25 26 -29 75
-3 43 -16 83 -46 146 -23 49 -42 94 -42 101 0 7 -8 23 -18 36 -10 13 -26 46
-36 72 -10 26 -28 55 -41 63 -18 12 -23 26 -27 76 -4 50 -9 65 -31 83 -14 13
-31 25 -38 27 -9 3 -9 9 2 25 14 24 21 8 -87 228 -33 66 -71 133 -86 149 -16
16 -28 35 -28 42 0 8 -3 14 -7 15 -71 5 -86 4 -94 -5z m2435 -4775 c14 -27 33
-54 41 -61 15 -13 20 -46 9 -74 -19 -50 -100 24 -119 108 -11 48 -11 58 1 71
21 21 38 10 68 -44z"/>
<path d="M10250 16709 c-19 -6 -55 -16 -80 -24 -25 -8 -68 -17 -95 -20 -43 -5
-55 -3 -79 16 -32 25 -66 27 -118 5 -21 -9 -66 -16 -102 -16 -48 0 -70 -5 -87
-19 -20 -16 -26 -17 -44 -5 -18 12 -29 10 -90 -17 -39 -17 -77 -35 -85 -40 -8
-5 -33 -18 -55 -28 -49 -23 -223 -194 -249 -245 -11 -20 -38 -49 -60 -64 -46
-31 -96 -117 -116 -200 -9 -41 -18 -56 -40 -67 -24 -12 -30 -23 -35 -62 -7
-55 -16 -77 -46 -114 -16 -20 -22 -48 -29 -127 -5 -56 -16 -125 -25 -154 -8
-28 -15 -75 -15 -104 0 -28 -7 -70 -15 -93 -25 -71 -29 -160 -10 -215 12 -35
14 -51 6 -59 -14 -14 -14 -134 -1 -142 6 -3 10 -20 10 -36 0 -33 29 -96 68
-147 25 -33 26 -38 29 -220 3 -247 10 -364 23 -415 41 -156 56 -201 92 -275
23 -45 45 -85 49 -88 5 -3 14 -24 20 -47 7 -25 27 -58 51 -82 76 -77 87 -90
97 -118 6 -16 11 -39 11 -52 0 -25 44 -120 60 -130 17 -11 11 -68 -10 -90 -19
-21 -31 -59 -52 -180 -11 -68 -32 -98 -91 -138 -23 -15 -62 -47 -87 -71 -86
-81 -191 -146 -237 -146 -50 0 -73 -27 -83 -98 -13 -95 -43 -117 -90 -67 -33
35 -79 32 -165 -10 -38 -19 -84 -35 -100 -35 -22 0 -43 -12 -76 -44 -37 -35
-51 -43 -73 -39 -20 4 -35 -3 -69 -34 -23 -21 -58 -44 -77 -52 -66 -24 -145
-64 -153 -78 -5 -7 -35 -27 -68 -43 -66 -34 -159 -115 -159 -140 0 -8 -27 -42
-61 -75 -34 -34 -72 -84 -87 -115 -14 -30 -39 -70 -54 -88 -23 -27 -28 -42
-28 -88 0 -36 -7 -69 -21 -95 -23 -45 -52 -185 -50 -238 1 -19 14 -55 29 -80
16 -25 31 -54 35 -64 3 -9 18 -22 32 -29 13 -6 27 -20 31 -31 6 -18 95 -108
249 -249 33 -31 96 -74 140 -96 44 -22 95 -52 114 -66 19 -14 40 -26 46 -26 7
0 47 -18 91 -40 44 -22 103 -44 132 -50 29 -5 69 -18 90 -29 44 -23 202 -81
221 -81 8 0 43 -14 79 -32 50 -25 83 -33 146 -38 57 -5 103 -16 156 -38 41
-17 92 -34 112 -37 29 -4 42 -13 53 -35 15 -30 48 -40 60 -20 8 13 45 13 45 0
0 -5 11 -17 24 -26 22 -14 34 -14 100 -3 60 10 86 10 123 1 27 -7 98 -17 160
-22 62 -6 132 -16 155 -24 39 -13 168 -24 368 -31 41 -2 138 -8 215 -14 120
-10 147 -9 183 3 36 13 166 20 257 15 31 -2 206 22 233 32 13 5 51 9 85 9 34
0 87 7 117 16 30 8 93 16 140 18 96 3 149 22 176 64 9 15 25 36 35 47 11 11
28 31 38 45 18 24 20 24 38 8 12 -11 35 -17 63 -17 25 0 63 -3 85 -6 33 -5 54
0 116 28 63 29 78 41 87 66 9 26 16 31 44 31 33 0 58 13 199 105 34 22 69 44
78 50 111 68 154 102 172 137 21 41 50 58 102 58 26 0 43 11 89 58 31 32 74
64 94 71 34 12 63 29 143 83 58 40 69 55 90 125 15 49 32 80 61 111 22 24 40
50 40 59 0 8 7 28 17 43 15 26 15 30 -5 61 -54 85 -55 91 -58 209 -2 104 -5
120 -29 163 -15 27 -38 53 -51 59 -17 8 -28 29 -43 77 -16 51 -30 77 -63 108
-24 23 -54 54 -68 68 -62 63 -77 75 -111 89 -20 8 -58 32 -85 53 -80 61 -170
103 -220 103 -33 0 -47 5 -56 20 -7 12 -34 34 -60 51 -37 24 -53 29 -80 24
-28 -5 -37 -2 -57 20 -19 23 -28 26 -59 21 -30 -4 -43 -1 -72 23 -37 29 -138
81 -159 81 -6 0 -29 9 -51 20 -24 12 -59 20 -89 20 -40 0 -52 4 -61 20 -19 36
-231 125 -315 132 -51 5 -63 10 -151 63 -62 38 -148 127 -173 180 -11 22 -42
62 -70 90 -50 49 -51 50 -51 111 0 35 6 74 15 90 8 16 15 48 15 70 0 31 9 55
35 92 19 28 37 63 41 79 4 15 17 36 30 45 36 29 76 108 78 158 7 144 72 319
149 403 91 98 167 197 173 225 9 44 26 82 52 120 46 68 56 142 52 382 -1 53
-16 105 -41 140 -9 14 -29 52 -43 83 -13 31 -36 72 -50 90 -14 19 -26 40 -26
48 0 8 -7 25 -16 38 -10 14 -14 33 -10 51 3 16 -1 53 -9 82 -10 40 -11 63 -3
94 8 33 7 48 -6 73 -11 21 -14 37 -8 49 20 37 21 91 3 114 -22 30 -45 102 -38
121 3 8 -1 24 -8 34 -8 11 -23 53 -34 93 -23 82 -38 108 -92 161 -28 27 -39
47 -39 67 0 33 -46 103 -85 128 -16 10 -36 14 -53 11 -28 -6 -104 21 -116 41
-4 6 -27 25 -53 42 -46 31 -73 37 -129 25 -43 -9 -99 18 -114 55 -7 16 -19 35
-27 41 -23 20 -113 47 -173 54 -118 12 -136 13 -170 4z m-144 -1404 c3 -8 25
-20 47 -26 64 -17 107 -43 162 -95 45 -44 52 -56 62 -112 9 -47 9 -76 0 -118
-14 -69 -53 -104 -168 -157 -69 -31 -82 -34 -134 -28 -43 4 -61 11 -69 26 -6
11 -27 39 -48 61 -30 34 -38 52 -43 100 -5 38 -14 66 -27 78 -19 18 -19 18 0
40 11 11 40 61 63 110 32 65 53 95 79 112 41 27 68 30 76 9z m1516 -4001 c-2
-17 2 -42 7 -56 7 -19 5 -33 -6 -54 -23 -45 -46 -115 -49 -154 -3 -33 -32 -70
-56 -70 -13 0 -1 88 16 115 7 11 16 37 20 59 4 21 17 58 28 82 21 42 21 44 4
63 -23 26 -14 54 16 49 19 -2 22 -8 20 -34z"/>
</g>
</svg>
